<svg width="119" height="126" viewBox="0 0 119 126" fill="none" xmlns="http://www.w3.org/2000/svg">
<path d="M70.7 97.84C67.6067 95.6 64.3533 94.5333 60.94 94.64C57.5267 94.7467 54.3267 95.9733 51.34 98.32C50.8067 98.8533 50.5933 99.44 50.7 100.08C50.9133 100.72 51.2867 101.147 51.82 101.36C52.46 101.573 53.1 101.467 53.74 101.04C58.6467 97.4133 63.66 97.36 68.78 100.88C69.6333 101.413 70.3267 101.52 70.86 101.2C71.5 100.88 71.82 100.4 71.82 99.76C71.82 99.0133 71.4467 98.3733 70.7 97.84ZM63.18 46.32C63.0733 45.5733 62.6467 45.0933 61.9 44.88C61.26 44.6667 60.6733 44.7733 60.14 45.2C59.7133 45.6267 59.5533 46.2667 59.66 47.12L63.18 66L55.02 65.2C54.2733 65.2 53.6867 65.4667 53.26 66C52.94 66.5333 52.8867 67.12 53.1 67.76C53.3133 68.2933 53.7933 68.6133 54.54 68.72L67.34 70L63.18 46.32ZM48.62 32.72C48.5133 31.9733 48.14 31.44 47.5 31.12C46.86 30.8 46.22 30.8 45.58 31.12C45.0467 31.3333 44.78 31.8667 44.78 32.72C44.6733 35.8133 43.3933 38 40.94 39.28C38.4867 40.56 36.0333 40.6133 33.58 39.44C31.1267 38.2667 29.8467 36.1333 29.74 33.04C29.74 32.2933 29.42 31.7067 28.78 31.28C28.2467 30.8533 27.6067 30.8 26.86 31.12C26.22 31.3333 25.9 31.92 25.9 32.88C25.9 37.4667 27.82 40.72 31.66 42.64C35.5 44.56 39.2867 44.6133 43.02 42.8C46.7533 40.88 48.62 37.52 48.62 32.72ZM93.58 32.72C93.4733 31.9733 93.1 31.44 92.46 31.12C91.82 30.8 91.18 30.8 90.54 31.12C90.0067 31.3333 89.74 31.8667 89.74 32.72C89.6333 35.8133 88.3533 38 85.9 39.28C83.4467 40.56 80.9933 40.6133 78.54 39.44C76.0867 38.2667 74.8067 36.1333 74.7 33.04C74.7 32.2933 74.38 31.7067 73.74 31.28C73.2067 30.8533 72.5667 30.8 71.82 31.12C71.18 31.3333 70.86 31.92 70.86 32.88C70.86 37.4667 72.78 40.72 76.62 42.64C80.46 44.56 84.2467 44.6133 87.98 42.8C91.7133 40.88 93.58 37.52 93.58 32.72ZM41.26 14.64C41.7933 14 41.9533 13.36 41.74 12.72C41.6333 11.9733 41.2067 11.5467 40.46 11.44C39.82 11.3333 39.18 11.6 38.54 12.24C36.7267 14.0533 34.9667 15.12 33.26 15.44C31.66 15.6533 29.8467 15.2267 27.82 14.16C26.9667 13.6267 26.22 13.5733 25.58 14C25.0467 14.32 24.78 14.9067 24.78 15.76C24.8867 16.5067 25.26 17.04 25.9 17.36C28.5667 18.8533 31.2333 19.44 33.9 19.12C36.5667 18.6933 39.02 17.2 41.26 14.64ZM78.22 14.64C80.46 17.2 82.9133 18.6933 85.58 19.12C88.2467 19.44 90.9133 18.8533 93.58 17.36C94.22 17.04 94.54 16.5067 94.54 15.76C94.6467 14.9067 94.38 14.32 93.74 14C93.2067 13.5733 92.5133 13.6267 91.66 14.16C89.6333 15.2267 87.7667 15.6533 86.06 15.44C84.46 15.12 82.7533 14.0533 80.94 12.24C80.3 11.6 79.6067 11.3333 78.86 11.44C78.22 11.5467 77.7933 11.9733 77.58 12.72C77.4733 13.36 77.6867 14 78.22 14.64ZM86.38 48.88C86.2733 48.6667 86.06 48.56 85.74 48.56C85.42 48.56 85.2067 48.6667 85.1 48.88L80.78 56.24C80.2467 57.2 80.0333 58.32 80.14 59.6C80.2467 60.88 80.78 62 81.74 62.96C82.8067 64.0267 84.0867 64.56 85.58 64.56C87.0733 64.56 88.4067 63.9733 89.58 62.8C90.54 61.9467 91.1267 60.88 91.34 59.6C91.5533 58.32 91.3933 57.2 90.86 56.24L86.38 48.88ZM85.9 49.36C85.7933 49.2533 85.74 49.2 85.74 49.2C85.74 49.2 85.6867 49.2533 85.58 49.36L84.78 50.8C84.6733 51.0133 84.62 51.2267 84.62 51.44C84.7267 51.6533 84.8333 51.8667 84.94 52.08C85.1533 52.2933 85.42 52.4 85.74 52.4C86.06 52.4 86.3267 52.2933 86.54 52.08C86.7533 51.8667 86.86 51.6533 86.86 51.44C86.9667 51.2267 86.9667 51.0133 86.86 50.8L85.9 49.36Z" fill="black"/>
</svg>
