<?xml version="1.0" encoding="UTF-8"?>
<svg
  width="229"
  height="162"
  viewBox="0 0 918 651"
  fill="none"
  xmlns="http://www.w3.org/2000/svg"
>
  <path
    d="M421.952 500.598c-9.407 11.58-20.604 18.893-33.591 21.942-12.987 3.048-26.301 1.655-39.943-4.18-2.551-1.473-3.949-3.471-4.194-5.993.158-2.631 1.135-4.618 2.932-5.962 2.199-1.452 4.722-1.697 7.568-.734 22.18 8.723 41.15 3.856 56.91-14.602 2.681-2.875 5.189-3.978 7.525-3.31 2.738.56 4.485 2.249 5.239 5.066.647 2.415-.168 5.006-2.446 7.773zM169.521 229.831c-1.797 1.344-4.118 1.535-6.964.572-2.444-1.071-3.99-2.813-4.637-5.228-.647-2.415.424-4.859 3.212-7.331 6.785-5.269 24.195-12.738 52.231-22.407 3.22-.863 5.757-.248 7.611 1.843 2.149 1.581 2.944 3.74 2.383 6.479-.158 2.63-1.846 4.377-5.066 5.24-23.609 8.482-39.866 15.427-48.77 20.832zm244.973-73.405c-4.642.381-12.706 1.679-24.191 3.894-11.082 2.107-19.534 4.371-25.356 6.794-3.112 1.265-5.796.906-8.053-1.077-1.854-2.092-2.501-4.507-1.941-7.245.453-3.141 2.087-5.089 4.905-5.843 7.941-2.56 17.051-4.785 27.328-6.676 10.572-2.401 19.441-3.915 26.606-4.541 2.523-.245 4.309.787 5.359 3.094 1.049 2.307 1.093 4.883.13 7.729-.668 2.336-2.264 3.626-4.787 3.871zM271.833 273.592c4.853 18.111 1.207 32.676-10.938 43.695-12.254 10.616-26.595 14.243-43.025 10.881s-26.964-13.696-31.601-31.002c-.971-3.622-.356-6.16 1.843-7.612 2.494-1.962 4.962-2.408 7.406-1.337 2.846.963 4.647 2.853 5.402 5.67 3.529 11.564 10.516 18.319 20.959 20.266 10.443 1.947 19.646-.735 27.609-8.045 7.962-7.31 10.581-16.854 7.856-28.634-.862-3.22-.396-5.502 1.401-6.846 2.091-1.854 4.506-2.501 7.245-1.941 2.738.56 4.686 2.195 5.843 4.905zm169.641-45.455c4.853 18.111 1.207 32.676-10.939 43.695-12.253 10.616-26.594 14.243-43.025 10.881-16.43-3.362-26.963-13.696-31.6-31.002-.971-3.623-.357-6.16 1.843-7.612 2.493-1.962 4.962-2.408 7.406-1.337 2.846.963 4.646 2.853 5.401 5.67 3.53 11.564 10.517 18.319 20.96 20.266 10.443 1.947 19.646-.735 27.608-8.045 7.963-7.31 10.582-16.855 7.857-28.634-.863-3.22-.396-5.502 1.401-6.846 2.091-1.854 4.506-2.501 7.244-1.941 2.739.56 4.686 2.195 5.844 4.905zM340.52 310.186l39.637 85.143-49.59 8.111c-2.926.352-5.06-.37-6.404-2.166-1.452-2.2-1.844-4.467-1.176-6.803 1.071-2.444 3.015-4.043 5.832-4.798l31.598-5.231-32.37-67.678c-1.265-3.112-1.308-5.689-.13-7.73 1.581-2.149 3.687-3.145 6.317-2.987 3.033.05 5.129 1.43 6.286 4.139zm-112.67 115.6l3.888-48.276 4.549.075-3.887 48.276-4.55-.075zm13.617 7.352l5.04-60.879 4.549.075-5.04 60.879-4.549-.075zm14.769-5.252l3.888-48.276 4.549.075-3.888 48.276-4.549-.075zm15.124-11.17l1.583-23.071 3.946.237-1.583 23.071-3.946-.237zm3.946.237l1.583-23.071-1.583 23.071zm-60.275-5.202l1.583-23.071 4.549.075-1.583 23.071-4.549-.075zm208.419-38.376l3.888-48.276 4.549.075L428 373.451l-4.55-.076zm13.617 7.352l5.04-60.879 4.549.075-5.04 60.879-4.549-.075zm14.769-5.252l3.888-48.276 4.549.075-3.888 48.276-4.549-.075zm15.124-11.17l1.583-23.071 3.946.237-1.583 23.071-3.946-.237zm3.946.237l1.583-23.071-1.583 23.071zm-60.275-5.202l1.583-23.071 4.549.075-1.583 23.071-4.549-.075z"
    fill="black"
  />
  <path
    d="M839.111 215.015l-67.5 62m49-108.5l-90 19m90-62l-83-45.5"
    stroke="black"
    stroke-width="12"
    stroke-linecap="round"
  />
  <rect
    x="853.715"
    y="100.125"
    width="36"
    height="202.186"
    rx="10"
    transform="rotate(-8.074 853.715 100.125)"
    fill="black"
  />
</svg>
