<svg
  width="909"
  height="1128"
  viewBox="0 0 1741 1327"
  fill="none"
  xmlns="http://www.w3.org/2000/svg"
>
  <ellipse cx="870.5" cy="943" rx="870.5" ry="384" fill="#FAF7E5" />
  <path
    d="M1216.23 201.82c132.91 357.195 130.29 557.486 0 914.68H545.734c-153.315-342.487-153.641-557.017-27-938.659l64.499-115.896 299.501 11.99 299.496 11.989 34 115.896z"
    fill="#6280C0"
  />
  <path
    d="M518.734 177.841l697.496 23.979m-697.496-23.979c-126.641 381.642-126.315 596.172 27 938.659h670.496c130.29-357.194 132.91-557.485 0-914.68m-697.496-23.979l64.499-115.896 299.501 11.99 299.496 11.989 34 115.896m-632.997 33.97c203.658-14.961 317.627-12.793 520.497 19.982 183.27 331.714 189.49 505.942 0 792.288-197.842 14.17-308.818 13.97-506.997-16.98-145.893-338.418-141.246-511.041-13.5-795.29z"
    stroke="#000002"
    stroke-width="20"
  />
  <ellipse
    cx="942.234"
    cy="608.456"
    rx="196.5"
    ry="205.316"
    fill="#EBCE56"
  />
  <path
    d="M750.734 636.93c-3.316-149.248 41.755-199.525 200-233.79 129.256 21.172 164.706 68.287 187.496 190.829-10.81 158.69-60.39 190.422-170.996 217.804-158.798-16.904-193.084-67.244-216.5-174.843zM885.734 633.933l-114.5-17.984m124.5 54.951l-58 47.957m101.5-12.489l-16 78.929m61-87.422l20.996 58.948m0-187.332l27.5-49.956m-72.496 26.976v-94.915m-37 103.407l-27.5-70.936M1012.23 659.41l57.5 59.447m-42-96.914l75.5 48.957m-82.5-78.93l74.5-22.479M891.734 591.97l-92-41.462"
    stroke="#000"
    stroke-width="5"
  />
  <path
    d="M579.734 776.305c-18.758-122.796 14.501-312.72 20.5-309.723 5.999 2.998 57.98 185.023 54.5 309.723-28.434 15.62-44.704 18.232-75 0z"
    fill="#EBCE56"
    stroke="#000"
    stroke-width="5"
  />
  <path
    d="M649.234 463.586c0 18.925-18.383 34.966-42 34.966-23.616 0-42-16.041-42-34.966 0-18.926 18.384-34.967 42-34.967 23.617 0 42 16.041 42 34.967z"
    fill="#EBCE56"
    stroke="#000"
    stroke-width="5"
  />
  <path
    d="M636.234 132.382V1l455.496 20.981v121.391l-455.496-10.99z"
    fill="#ffffff"
    stroke="#FBF8EA"
  />
  <path
    d="M713.184 87.659l28.518-46.17 17.186.704-38.659 61.568-18.484-.758-33.681-64.533 17.282.808 24.624 48.65 1.388 2.759c.645-1.075 1.186-2.053 1.826-3.028zm85.719-43.726l34.385 64.462-16.087-.659-5.664-10.741-46.361-1.9-6.626 10.237-16.186-.664 39.953-61.415 16.586.68zM772.875 83.1l31.973 1.31-13.746-25.984-1.117-2.048c-.432.783-.96 1.462-1.393 2.245L772.875 83.1zm126.919-7.609l1.124-27.377 14.188.582-.989 24.08c-1.013 24.679-6.349 40.073-42.019 38.611-35.67-1.462-39.727-17.241-38.713-41.92l.989-24.08 14.188.581-1.124 27.377c-.85 20.683 10.214 24.239 25.201 24.853 15.987.655 26.305-2.024 27.155-22.707zm26.681 36.724l2.585-62.947 14.388.59-2.031 49.458 53.055 2.175-.554 13.488-67.443-2.764zm99.235-45.875l-2.05 49.858-14.49-.593 2.05-49.859-31.272-1.281.537-13.09 76.835 3.15-.54 13.09-31.07-1.275z"
    fill="#000"
  />
</svg>
